<?xml version="1.0" encoding="UTF-8" standalone="no"?>
<!DOCTYPE svg PUBLIC "-//W3C//DTD SVG 1.1//EN"
 "http://www.w3.org/Graphics/SVG/1.1/DTD/svg11.dtd">
<!-- Generated by graphviz version 2.40.1 (20161225.0304)
 -->
<!-- Title: G Pages: 1 -->
<svg width="768pt" height="634pt"
 viewBox="0.00 0.00 768.20 634.22" xmlns="http://www.w3.org/2000/svg" xmlns:xlink="http://www.w3.org/1999/xlink">
<g id="graph0" class="graph" transform="scale(1 1) rotate(0) translate(21.6 612.6193)">
<title>G</title>
<polygon fill="#111111" stroke="transparent" points="-21.6,21.6 -21.6,-612.6193 746.6,-612.6193 746.6,21.6 -21.6,21.6"/>
<!-- ../ciencias/administracion.js -->
<g id="node1" class="node">
<title>../ciencias/administracion.js</title>
<path fill="none" stroke="#cfffac" d="M322.3333,-591.0193C322.3333,-591.0193 144.6667,-591.0193 144.6667,-591.0193 140.8333,-591.0193 137,-587.186 137,-583.3527 137,-583.3527 137,-575.686 137,-575.686 137,-571.8527 140.8333,-568.0193 144.6667,-568.0193 144.6667,-568.0193 322.3333,-568.0193 322.3333,-568.0193 326.1667,-568.0193 330,-571.8527 330,-575.686 330,-575.686 330,-583.3527 330,-583.3527 330,-587.186 326.1667,-591.0193 322.3333,-591.0193"/>
<text text-anchor="middle" x="233.5" y="-575.8193" font-family="Arial" font-size="14.00" fill="#cfffac">../ciencias/administracion.js</text>
</g>
<!-- ../ciencias/cognitivas.js -->
<g id="node2" class="node">
<title>../ciencias/cognitivas.js</title>
<path fill="none" stroke="#ff6c60" d="M307.8333,-550.0193C307.8333,-550.0193 159.1667,-550.0193 159.1667,-550.0193 155.3333,-550.0193 151.5,-546.186 151.5,-542.3527 151.5,-542.3527 151.5,-534.686 151.5,-534.686 151.5,-530.8527 155.3333,-527.0193 159.1667,-527.0193 159.1667,-527.0193 307.8333,-527.0193 307.8333,-527.0193 311.6667,-527.0193 315.5,-530.8527 315.5,-534.686 315.5,-534.686 315.5,-542.3527 315.5,-542.3527 315.5,-546.186 311.6667,-550.0193 307.8333,-550.0193"/>
<text text-anchor="middle" x="233.5" y="-534.8193" font-family="Arial" font-size="14.00" fill="#ff6c60">../ciencias/cognitivas.js</text>
</g>
<!-- psicologia.js -->
<g id="node3" class="node">
<title>psicologia.js</title>
<path fill="none" stroke="#ff6c60" d="M711.8333,-510.0193C711.8333,-510.0193 631.1667,-510.0193 631.1667,-510.0193 627.3333,-510.0193 623.5,-506.186 623.5,-502.3527 623.5,-502.3527 623.5,-494.686 623.5,-494.686 623.5,-490.8527 627.3333,-487.0193 631.1667,-487.0193 631.1667,-487.0193 711.8333,-487.0193 711.8333,-487.0193 715.6667,-487.0193 719.5,-490.8527 719.5,-494.686 719.5,-494.686 719.5,-502.3527 719.5,-502.3527 719.5,-506.186 715.6667,-510.0193 711.8333,-510.0193"/>
<text text-anchor="middle" x="671.5" y="-494.8193" font-family="Arial" font-size="14.00" fill="#ff6c60">psicologia.js</text>
</g>
<!-- ../ciencias/cognitivas.js&#45;&gt;psicologia.js -->
<g id="edge1" class="edge">
<title>../ciencias/cognitivas.js&#45;&gt;psicologia.js</title>
<path fill="none" stroke="#757575" d="M315.7095,-534.2621C386.4413,-530.1512 491.1397,-522.9977 582,-512.5193 592.0772,-511.3572 602.758,-509.8919 613.0984,-508.35"/>
<polygon fill="#757575" stroke="#757575" points="613.9347,-511.7629 623.2904,-506.791 612.8762,-504.8434 613.9347,-511.7629"/>
</g>
<!-- informatica.js -->
<g id="node9" class="node">
<title>informatica.js</title>
<path fill="none" stroke="#ff6c60" d="M93.3333,-316.0193C93.3333,-316.0193 7.6667,-316.0193 7.6667,-316.0193 3.8333,-316.0193 0,-312.186 0,-308.3527 0,-308.3527 0,-300.686 0,-300.686 0,-296.8527 3.8333,-293.0193 7.6667,-293.0193 7.6667,-293.0193 93.3333,-293.0193 93.3333,-293.0193 97.1667,-293.0193 101,-296.8527 101,-300.686 101,-300.686 101,-308.3527 101,-308.3527 101,-312.186 97.1667,-316.0193 93.3333,-316.0193"/>
<text text-anchor="middle" x="50.5" y="-300.8193" font-family="Arial" font-size="14.00" fill="#ff6c60">informatica.js</text>
</g>
<!-- psicologia.js&#45;&gt;informatica.js -->
<g id="edge27" class="edge">
<title>psicologia.js&#45;&gt;informatica.js</title>
<path fill="none" stroke="#757575" d="M623.319,-501.8094C507.3804,-508.8083 216.5536,-520.6312 137,-469.5193 85.9533,-436.7226 63.2708,-363.3905 54.7936,-326.5419"/>
<polygon fill="#757575" stroke="#757575" points="58.1286,-325.4025 52.6031,-316.3627 51.2852,-326.8752 58.1286,-325.4025"/>
</g>
<!-- ../ciencias/empircoNaturales.js -->
<g id="node4" class="node">
<title>../ciencias/empircoNaturales.js</title>
<path fill="none" stroke="#ff6c60" d="M572.8333,-435.0193C572.8333,-435.0193 375.1667,-435.0193 375.1667,-435.0193 371.3333,-435.0193 367.5,-431.186 367.5,-427.3527 367.5,-427.3527 367.5,-419.686 367.5,-419.686 367.5,-415.8527 371.3333,-412.0193 375.1667,-412.0193 375.1667,-412.0193 572.8333,-412.0193 572.8333,-412.0193 576.6667,-412.0193 580.5,-415.8527 580.5,-419.686 580.5,-419.686 580.5,-427.3527 580.5,-427.3527 580.5,-431.186 576.6667,-435.0193 572.8333,-435.0193"/>
<text text-anchor="middle" x="474" y="-419.8193" font-family="Arial" font-size="14.00" fill="#ff6c60">../ciencias/empircoNaturales.js</text>
</g>
<!-- ../ciencias/empircoNaturales.js&#45;&gt;psicologia.js -->
<g id="edge4" class="edge">
<title>../ciencias/empircoNaturales.js&#45;&gt;psicologia.js</title>
<path fill="none" stroke="#757575" d="M504.4265,-435.0737C538.4959,-448.0114 593.8469,-469.0308 631.4199,-483.299"/>
<polygon fill="#757575" stroke="#757575" points="630.4477,-486.6736 641.0389,-486.9518 632.9328,-480.1296 630.4477,-486.6736"/>
</g>
<!-- electronica.js -->
<g id="node5" class="node">
<title>electronica.js</title>
<path fill="none" stroke="#ff6c60" d="M714.3333,-416.0193C714.3333,-416.0193 628.6667,-416.0193 628.6667,-416.0193 624.8333,-416.0193 621,-412.186 621,-408.3527 621,-408.3527 621,-400.686 621,-400.686 621,-396.8527 624.8333,-393.0193 628.6667,-393.0193 628.6667,-393.0193 714.3333,-393.0193 714.3333,-393.0193 718.1667,-393.0193 722,-396.8527 722,-400.686 722,-400.686 722,-408.3527 722,-408.3527 722,-412.186 718.1667,-416.0193 714.3333,-416.0193"/>
<text text-anchor="middle" x="671.5" y="-400.8193" font-family="Arial" font-size="14.00" fill="#ff6c60">electronica.js</text>
</g>
<!-- ../ciencias/empircoNaturales.js&#45;&gt;electronica.js -->
<g id="edge2" class="edge">
<title>../ciencias/empircoNaturales.js&#45;&gt;electronica.js</title>
<path fill="none" stroke="#757575" d="M580.554,-413.2685C590.8564,-412.2774 601.0448,-411.2973 610.6669,-410.3716"/>
<polygon fill="#757575" stroke="#757575" points="611.2454,-413.8322 620.8643,-409.3906 610.575,-406.8644 611.2454,-413.8322"/>
</g>
<!-- neuroFisica.js -->
<g id="node6" class="node">
<title>neuroFisica.js</title>
<path fill="none" stroke="#ff6c60" d="M717.3333,-336.0193C717.3333,-336.0193 625.6667,-336.0193 625.6667,-336.0193 621.8333,-336.0193 618,-332.186 618,-328.3527 618,-328.3527 618,-320.686 618,-320.686 618,-316.8527 621.8333,-313.0193 625.6667,-313.0193 625.6667,-313.0193 717.3333,-313.0193 717.3333,-313.0193 721.1667,-313.0193 725,-316.8527 725,-320.686 725,-320.686 725,-328.3527 725,-328.3527 725,-332.186 721.1667,-336.0193 717.3333,-336.0193"/>
<text text-anchor="middle" x="671.5" y="-320.8193" font-family="Arial" font-size="14.00" fill="#ff6c60">neuroFisica.js</text>
</g>
<!-- ../ciencias/empircoNaturales.js&#45;&gt;neuroFisica.js -->
<g id="edge3" class="edge">
<title>../ciencias/empircoNaturales.js&#45;&gt;neuroFisica.js</title>
<path fill="none" stroke="#757575" d="M560.2675,-411.9633C567.7909,-409.6426 575.1423,-406.8586 582,-403.5193 611.571,-389.1203 638.8727,-362.2151 655.3551,-343.8423"/>
<polygon fill="#757575" stroke="#757575" points="658.195,-345.9113 662.1361,-336.0767 652.9223,-341.3071 658.195,-345.9113"/>
</g>
<!-- electronica.js&#45;&gt;informatica.js -->
<g id="edge16" class="edge">
<title>electronica.js&#45;&gt;informatica.js</title>
<path fill="none" stroke="#757575" d="M652.0082,-392.9102C634.3735,-383.0171 607.3573,-369.3489 582,-362.5193 390.2956,-310.8867 333.2523,-353.545 137,-323.5193 127.5247,-322.0696 117.5344,-320.1992 107.8418,-318.1989"/>
<polygon fill="#757575" stroke="#757575" points="108.3926,-314.7378 97.883,-316.0796 106.9355,-321.5845 108.3926,-314.7378"/>
</g>
<!-- neuroFisica.js&#45;&gt;informatica.js -->
<g id="edge25" class="edge">
<title>neuroFisica.js&#45;&gt;informatica.js</title>
<path fill="none" stroke="#757575" d="M617.7149,-322.7871C502.4901,-319.0762 232.4672,-310.3798 111.2664,-306.4764"/>
<polygon fill="#757575" stroke="#757575" points="111.1632,-302.9713 101.0557,-306.1475 110.9379,-309.9677 111.1632,-302.9713"/>
</g>
<!-- ../ciencias/empiricas.js -->
<g id="node7" class="node">
<title>../ciencias/empiricas.js</title>
<path fill="none" stroke="#ff6c60" d="M306.3333,-432.0193C306.3333,-432.0193 160.6667,-432.0193 160.6667,-432.0193 156.8333,-432.0193 153,-428.186 153,-424.3527 153,-424.3527 153,-416.686 153,-416.686 153,-412.8527 156.8333,-409.0193 160.6667,-409.0193 160.6667,-409.0193 306.3333,-409.0193 306.3333,-409.0193 310.1667,-409.0193 314,-412.8527 314,-416.686 314,-416.686 314,-424.3527 314,-424.3527 314,-428.186 310.1667,-432.0193 306.3333,-432.0193"/>
<text text-anchor="middle" x="233.5" y="-416.8193" font-family="Arial" font-size="14.00" fill="#ff6c60">../ciencias/empiricas.js</text>
</g>
<!-- ../ciencias/empiricas.js&#45;&gt;../ciencias/empircoNaturales.js -->
<g id="edge5" class="edge">
<title>../ciencias/empiricas.js&#45;&gt;../ciencias/empircoNaturales.js</title>
<path fill="none" stroke="#757575" d="M314.2521,-421.5266C328.1113,-421.6995 342.7581,-421.8822 357.3345,-422.064"/>
<polygon fill="#757575" stroke="#757575" points="357.3612,-425.5645 367.4041,-422.1896 357.4486,-418.5651 357.3612,-425.5645"/>
</g>
<!-- ../ciencias/empricoArtificiales.js -->
<g id="node8" class="node">
<title>../ciencias/empricoArtificiales.js</title>
<path fill="none" stroke="#ff6c60" d="M574.3333,-394.0193C574.3333,-394.0193 373.6667,-394.0193 373.6667,-394.0193 369.8333,-394.0193 366,-390.186 366,-386.3527 366,-386.3527 366,-378.686 366,-378.686 366,-374.8527 369.8333,-371.0193 373.6667,-371.0193 373.6667,-371.0193 574.3333,-371.0193 574.3333,-371.0193 578.1667,-371.0193 582,-374.8527 582,-378.686 582,-378.686 582,-386.3527 582,-386.3527 582,-390.186 578.1667,-394.0193 574.3333,-394.0193"/>
<text text-anchor="middle" x="474" y="-378.8193" font-family="Arial" font-size="14.00" fill="#ff6c60">../ciencias/empricoArtificiales.js</text>
</g>
<!-- ../ciencias/empiricas.js&#45;&gt;../ciencias/empricoArtificiales.js -->
<g id="edge6" class="edge">
<title>../ciencias/empiricas.js&#45;&gt;../ciencias/empricoArtificiales.js</title>
<path fill="none" stroke="#757575" d="M306.3106,-409.0149C333.0301,-404.7932 363.4711,-399.9833 391.017,-395.631"/>
<polygon fill="#757575" stroke="#757575" points="391.691,-399.068 401.0222,-394.0501 390.5985,-392.1538 391.691,-399.068"/>
</g>
<!-- ../ciencias/empricoArtificiales.js&#45;&gt;informatica.js -->
<g id="edge7" class="edge">
<title>../ciencias/empricoArtificiales.js&#45;&gt;informatica.js</title>
<path fill="none" stroke="#757575" d="M365.7132,-386.7178C298.4097,-386.2844 210.9267,-380.1295 137,-356.5193 113.7624,-349.0978 90.2172,-334.3696 73.5714,-322.4767"/>
<polygon fill="#757575" stroke="#757575" points="75.2076,-319.3351 65.0793,-316.2256 71.0579,-324.9725 75.2076,-319.3351"/>
</g>
<!-- informatica.js&#45;&gt;../ciencias/administracion.js -->
<g id="edge18" class="edge">
<title>informatica.js&#45;&gt;../ciencias/administracion.js</title>
<path fill="none" stroke="#757575" d="M52.8652,-316.2083C62.2831,-361.6147 98.4776,-525.4548 137,-559.5193 138.1616,-560.5465 139.3618,-561.5259 140.5965,-562.4598"/>
<polygon fill="#757575" stroke="#757575" points="138.896,-565.5273 149.2021,-567.9841 142.6776,-559.6366 138.896,-565.5273"/>
</g>
<!-- informatica.js&#45;&gt;../ciencias/cognitivas.js -->
<g id="edge19" class="edge">
<title>informatica.js&#45;&gt;../ciencias/cognitivas.js</title>
<path fill="none" stroke="#757575" d="M51.795,-316.2455C56.3378,-351.5865 74.81,-457.9817 137,-512.5193 141.4293,-516.4036 146.3811,-519.7149 151.639,-522.5368"/>
<polygon fill="#757575" stroke="#757575" points="150.2019,-525.7288 160.7384,-526.8388 153.1938,-519.4004 150.2019,-525.7288"/>
</g>
<!-- informatica.js&#45;&gt;../ciencias/empircoNaturales.js -->
<g id="edge20" class="edge">
<title>informatica.js&#45;&gt;../ciencias/empircoNaturales.js</title>
<path fill="none" stroke="#757575" d="M53.6574,-316.1595C61.9029,-343.9595 86.9932,-413.9527 137,-441.5193 232.658,-494.2516 367.7147,-460.6342 434.0559,-438.4682"/>
<polygon fill="#757575" stroke="#757575" points="435.3894,-441.711 443.7148,-435.1582 433.1202,-435.089 435.3894,-441.711"/>
</g>
<!-- informatica.js&#45;&gt;../ciencias/empiricas.js -->
<g id="edge21" class="edge">
<title>informatica.js&#45;&gt;../ciencias/empiricas.js</title>
<path fill="none" stroke="#757575" d="M58.3627,-316.1125C72.0426,-335.3737 102.1203,-373.8853 137,-394.5193 144.5408,-398.9803 152.8614,-402.693 161.3607,-405.7791"/>
<polygon fill="#757575" stroke="#757575" points="160.4067,-409.1506 171.0006,-409.0036 162.6273,-402.5121 160.4067,-409.1506"/>
</g>
<!-- ../ciencias/formales.js -->
<g id="node10" class="node">
<title>../ciencias/formales.js</title>
<path fill="none" stroke="#c6c5fe" d="M303.3333,-276.0193C303.3333,-276.0193 163.6667,-276.0193 163.6667,-276.0193 159.8333,-276.0193 156,-272.186 156,-268.3527 156,-268.3527 156,-260.686 156,-260.686 156,-256.8527 159.8333,-253.0193 163.6667,-253.0193 163.6667,-253.0193 303.3333,-253.0193 303.3333,-253.0193 307.1667,-253.0193 311,-256.8527 311,-260.686 311,-260.686 311,-268.3527 311,-268.3527 311,-272.186 307.1667,-276.0193 303.3333,-276.0193"/>
<text text-anchor="middle" x="233.5" y="-260.8193" font-family="Arial" font-size="14.00" fill="#c6c5fe">../ciencias/formales.js</text>
</g>
<!-- informatica.js&#45;&gt;../ciencias/formales.js -->
<g id="edge22" class="edge">
<title>informatica.js&#45;&gt;../ciencias/formales.js</title>
<path fill="none" stroke="#757575" d="M101.4757,-293.3771C123.033,-288.6651 148.3512,-283.1311 171.0188,-278.1764"/>
<polygon fill="#757575" stroke="#757575" points="171.8652,-281.5741 180.8872,-276.0194 170.3704,-274.7356 171.8652,-281.5741"/>
</g>
<!-- ../ciencias/lenguaje.js -->
<g id="node13" class="node">
<title>../ciencias/lenguaje.js</title>
<path fill="none" stroke="#cfffac" d="M303.3333,-235.0193C303.3333,-235.0193 163.6667,-235.0193 163.6667,-235.0193 159.8333,-235.0193 156,-231.186 156,-227.3527 156,-227.3527 156,-219.686 156,-219.686 156,-215.8527 159.8333,-212.0193 163.6667,-212.0193 163.6667,-212.0193 303.3333,-212.0193 303.3333,-212.0193 307.1667,-212.0193 311,-215.8527 311,-219.686 311,-219.686 311,-227.3527 311,-227.3527 311,-231.186 307.1667,-235.0193 303.3333,-235.0193"/>
<text text-anchor="middle" x="233.5" y="-219.8193" font-family="Arial" font-size="14.00" fill="#cfffac">../ciencias/lenguaje.js</text>
</g>
<!-- informatica.js&#45;&gt;../ciencias/lenguaje.js -->
<g id="edge23" class="edge">
<title>informatica.js&#45;&gt;../ciencias/lenguaje.js</title>
<path fill="none" stroke="#757575" d="M63.5811,-292.9515C79.7133,-279.306 108.5096,-256.9144 137,-244.5193 142.6747,-242.0505 148.6675,-239.8604 154.7759,-237.9195"/>
<polygon fill="#757575" stroke="#757575" points="155.8387,-241.2552 164.4409,-235.0703 153.8593,-234.5408 155.8387,-241.2552"/>
</g>
<!-- ../ciencias/sociales.js -->
<g id="node14" class="node">
<title>../ciencias/sociales.js</title>
<path fill="none" stroke="#ff6c60" d="M301.8333,-117.0193C301.8333,-117.0193 165.1667,-117.0193 165.1667,-117.0193 161.3333,-117.0193 157.5,-113.186 157.5,-109.3527 157.5,-109.3527 157.5,-101.686 157.5,-101.686 157.5,-97.8527 161.3333,-94.0193 165.1667,-94.0193 165.1667,-94.0193 301.8333,-94.0193 301.8333,-94.0193 305.6667,-94.0193 309.5,-97.8527 309.5,-101.686 309.5,-101.686 309.5,-109.3527 309.5,-109.3527 309.5,-113.186 305.6667,-117.0193 301.8333,-117.0193"/>
<text text-anchor="middle" x="233.5" y="-101.8193" font-family="Arial" font-size="14.00" fill="#ff6c60">../ciencias/sociales.js</text>
</g>
<!-- informatica.js&#45;&gt;../ciencias/sociales.js -->
<g id="edge24" class="edge">
<title>informatica.js&#45;&gt;../ciencias/sociales.js</title>
<path fill="none" stroke="#757575" d="M52.8784,-292.7658C59.8402,-261.4693 83.1772,-175.5054 137,-131.5193 141.9374,-127.4843 147.4459,-124.072 153.2597,-121.1867"/>
<polygon fill="#757575" stroke="#757575" points="154.8656,-124.304 162.609,-117.0728 152.0462,-117.8968 154.8656,-124.304"/>
</g>
<!-- logica.js -->
<g id="node11" class="node">
<title>logica.js</title>
<path fill="none" stroke="#cfffac" d="M500.8333,-276.0193C500.8333,-276.0193 447.1667,-276.0193 447.1667,-276.0193 443.3333,-276.0193 439.5,-272.186 439.5,-268.3527 439.5,-268.3527 439.5,-260.686 439.5,-260.686 439.5,-256.8527 443.3333,-253.0193 447.1667,-253.0193 447.1667,-253.0193 500.8333,-253.0193 500.8333,-253.0193 504.6667,-253.0193 508.5,-256.8527 508.5,-260.686 508.5,-260.686 508.5,-268.3527 508.5,-268.3527 508.5,-272.186 504.6667,-276.0193 500.8333,-276.0193"/>
<text text-anchor="middle" x="474" y="-260.8193" font-family="Arial" font-size="14.00" fill="#cfffac">logica.js</text>
</g>
<!-- ../ciencias/formales.js&#45;&gt;logica.js -->
<g id="edge8" class="edge">
<title>../ciencias/formales.js&#45;&gt;logica.js</title>
<path fill="none" stroke="#757575" d="M311.2513,-264.5193C350.2594,-264.5193 396.1149,-264.5193 429.193,-264.5193"/>
<polygon fill="#757575" stroke="#757575" points="429.4588,-268.0194 439.4588,-264.5193 429.4587,-261.0194 429.4588,-268.0194"/>
</g>
<!-- matematicas.js -->
<g id="node12" class="node">
<title>matematicas.js</title>
<path fill="none" stroke="#cfffac" d="M522.8333,-235.0193C522.8333,-235.0193 425.1667,-235.0193 425.1667,-235.0193 421.3333,-235.0193 417.5,-231.186 417.5,-227.3527 417.5,-227.3527 417.5,-219.686 417.5,-219.686 417.5,-215.8527 421.3333,-212.0193 425.1667,-212.0193 425.1667,-212.0193 522.8333,-212.0193 522.8333,-212.0193 526.6667,-212.0193 530.5,-215.8527 530.5,-219.686 530.5,-219.686 530.5,-227.3527 530.5,-227.3527 530.5,-231.186 526.6667,-235.0193 522.8333,-235.0193"/>
<text text-anchor="middle" x="474" y="-219.8193" font-family="Arial" font-size="14.00" fill="#cfffac">matematicas.js</text>
</g>
<!-- ../ciencias/formales.js&#45;&gt;matematicas.js -->
<g id="edge9" class="edge">
<title>../ciencias/formales.js&#45;&gt;matematicas.js</title>
<path fill="none" stroke="#757575" d="M301.1327,-252.9894C334.3725,-247.3228 374.2939,-240.517 407.3943,-234.8741"/>
<polygon fill="#757575" stroke="#757575" points="408.1634,-238.2936 417.433,-233.1628 406.987,-231.3932 408.1634,-238.2936"/>
</g>
<!-- derecho.js -->
<g id="node15" class="node">
<title>derecho.js</title>
<path fill="none" stroke="#ff6c60" d="M508.3333,-192.0193C508.3333,-192.0193 439.6667,-192.0193 439.6667,-192.0193 435.8333,-192.0193 432,-188.186 432,-184.3527 432,-184.3527 432,-176.686 432,-176.686 432,-172.8527 435.8333,-169.0193 439.6667,-169.0193 439.6667,-169.0193 508.3333,-169.0193 508.3333,-169.0193 512.1667,-169.0193 516,-172.8527 516,-176.686 516,-176.686 516,-184.3527 516,-184.3527 516,-188.186 512.1667,-192.0193 508.3333,-192.0193"/>
<text text-anchor="middle" x="474" y="-176.8193" font-family="Arial" font-size="14.00" fill="#ff6c60">derecho.js</text>
</g>
<!-- ../ciencias/sociales.js&#45;&gt;derecho.js -->
<g id="edge10" class="edge">
<title>../ciencias/sociales.js&#45;&gt;derecho.js</title>
<path fill="none" stroke="#757575" d="M259.9927,-117.0606C286.4536,-128.2663 328.4795,-145.1981 366,-156.5193 383.908,-161.9228 403.8204,-166.6883 421.6206,-170.5193"/>
<polygon fill="#757575" stroke="#757575" points="421.3198,-174.0325 431.8259,-172.6647 422.7599,-167.1822 421.3198,-174.0325"/>
</g>
<!-- economia.js -->
<g id="node16" class="node">
<title>economia.js</title>
<path fill="none" stroke="#ff6c60" d="M513.8333,-147.0193C513.8333,-147.0193 434.1667,-147.0193 434.1667,-147.0193 430.3333,-147.0193 426.5,-143.186 426.5,-139.3527 426.5,-139.3527 426.5,-131.686 426.5,-131.686 426.5,-127.8527 430.3333,-124.0193 434.1667,-124.0193 434.1667,-124.0193 513.8333,-124.0193 513.8333,-124.0193 517.6667,-124.0193 521.5,-127.8527 521.5,-131.686 521.5,-131.686 521.5,-139.3527 521.5,-139.3527 521.5,-143.186 517.6667,-147.0193 513.8333,-147.0193"/>
<text text-anchor="middle" x="474" y="-131.8193" font-family="Arial" font-size="14.00" fill="#ff6c60">economia.js</text>
</g>
<!-- ../ciencias/sociales.js&#45;&gt;economia.js -->
<g id="edge11" class="edge">
<title>../ciencias/sociales.js&#45;&gt;economia.js</title>
<path fill="none" stroke="#757575" d="M309.5957,-115.0115C344.1167,-119.3177 384.2755,-124.3271 416.261,-128.3169"/>
<polygon fill="#757575" stroke="#757575" points="415.9849,-131.8095 426.3412,-129.5744 416.8514,-124.8634 415.9849,-131.8095"/>
</g>
<!-- etica.js -->
<g id="node17" class="node">
<title>etica.js</title>
<path fill="none" stroke="#ff6c60" d="M497.3333,-98.0193C497.3333,-98.0193 450.6667,-98.0193 450.6667,-98.0193 446.8333,-98.0193 443,-94.186 443,-90.3527 443,-90.3527 443,-82.686 443,-82.686 443,-78.8527 446.8333,-75.0193 450.6667,-75.0193 450.6667,-75.0193 497.3333,-75.0193 497.3333,-75.0193 501.1667,-75.0193 505,-78.8527 505,-82.686 505,-82.686 505,-90.3527 505,-90.3527 505,-94.186 501.1667,-98.0193 497.3333,-98.0193"/>
<text text-anchor="middle" x="474" y="-82.8193" font-family="Arial" font-size="14.00" fill="#ff6c60">etica.js</text>
</g>
<!-- ../ciencias/sociales.js&#45;&gt;etica.js -->
<g id="edge12" class="edge">
<title>../ciencias/sociales.js&#45;&gt;etica.js</title>
<path fill="none" stroke="#757575" d="M309.5957,-99.5076C350.3771,-96.2858 399.0266,-92.4424 432.7741,-89.7763"/>
<polygon fill="#757575" stroke="#757575" points="433.0506,-93.2654 442.7438,-88.9886 432.4992,-86.2872 433.0506,-93.2654"/>
</g>
<!-- politica.js -->
<g id="node18" class="node">
<title>politica.js</title>
<path fill="none" stroke="#ff6c60" d="M504.3333,-41.0193C504.3333,-41.0193 443.6667,-41.0193 443.6667,-41.0193 439.8333,-41.0193 436,-37.186 436,-33.3527 436,-33.3527 436,-25.686 436,-25.686 436,-21.8527 439.8333,-18.0193 443.6667,-18.0193 443.6667,-18.0193 504.3333,-18.0193 504.3333,-18.0193 508.1667,-18.0193 512,-21.8527 512,-25.686 512,-25.686 512,-33.3527 512,-33.3527 512,-37.186 508.1667,-41.0193 504.3333,-41.0193"/>
<text text-anchor="middle" x="474" y="-25.8193" font-family="Arial" font-size="14.00" fill="#ff6c60">politica.js</text>
</g>
<!-- ../ciencias/sociales.js&#45;&gt;politica.js -->
<g id="edge13" class="edge">
<title>../ciencias/sociales.js&#45;&gt;politica.js</title>
<path fill="none" stroke="#757575" d="M270.0268,-93.9766C312.2623,-80.6298 381.8536,-58.6384 427.81,-44.1157"/>
<polygon fill="#757575" stroke="#757575" points="429.0437,-47.3966 437.5243,-41.0459 426.9344,-40.7219 429.0437,-47.3966"/>
</g>
<!-- derecho.js&#45;&gt;informatica.js -->
<g id="edge14" class="edge">
<title>derecho.js&#45;&gt;informatica.js</title>
<path fill="none" stroke="#757575" d="M431.906,-173.4634C365.3359,-164.4006 233.4288,-155.0983 137,-203.5193 102.003,-221.0928 75.4066,-259.7221 61.4437,-283.7878"/>
<polygon fill="#757575" stroke="#757575" points="58.2238,-282.3752 56.403,-292.8124 64.3351,-285.7887 58.2238,-282.3752"/>
</g>
<!-- economia.js&#45;&gt;informatica.js -->
<g id="edge15" class="edge">
<title>economia.js&#45;&gt;informatica.js</title>
<path fill="none" stroke="#757575" d="M426.2135,-133.9482C344.9757,-132.1302 184.158,-132.4836 137,-161.5193 91.9382,-189.2644 67.1794,-250.0576 56.6662,-282.7275"/>
<polygon fill="#757575" stroke="#757575" points="53.2123,-282.0541 53.6382,-292.6404 59.9069,-284.0991 53.2123,-282.0541"/>
</g>
<!-- etica.js&#45;&gt;informatica.js -->
<g id="edge17" class="edge">
<title>etica.js&#45;&gt;informatica.js</title>
<path fill="none" stroke="#757575" d="M442.7672,-75.7518C378.9893,-55.8733 231.8182,-21.0239 137,-85.5193 102.7543,-108.8133 68.5276,-232.4395 55.7455,-282.9717"/>
<polygon fill="#757575" stroke="#757575" points="52.3068,-282.2966 53.2866,-292.8461 59.0993,-283.9881 52.3068,-282.2966"/>
</g>
<!-- politica.js&#45;&gt;informatica.js -->
<g id="edge26" class="edge">
<title>politica.js&#45;&gt;informatica.js</title>
<path fill="none" stroke="#757575" d="M435.787,-18.5535C368.0363,-1.6052 225.6642,22.472 137,-44.5193 97.7694,-74.1605 65.4936,-225.464 54.521,-282.6189"/>
<polygon fill="#757575" stroke="#757575" points="51.028,-282.2553 52.6147,-292.7306 57.9068,-283.5522 51.028,-282.2553"/>
</g>
</g>
</svg>
