<?xml version="1.0" encoding="UTF-8" standalone="no"?>
<!DOCTYPE svg PUBLIC "-//W3C//DTD SVG 1.1//EN"
 "http://www.w3.org/Graphics/SVG/1.1/DTD/svg11.dtd">
<!-- Generated by graphviz version 2.40.1 (20161225.0304)
 -->
<!-- Title: G Pages: 1 -->
<svg width="768pt" height="561pt"
 viewBox="0.00 0.00 768.20 561.11" xmlns="http://www.w3.org/2000/svg" xmlns:xlink="http://www.w3.org/1999/xlink">
<g id="graph0" class="graph" transform="scale(1 1) rotate(0) translate(21.6 539.5134)">
<title>G</title>
<polygon fill="#111111" stroke="transparent" points="-21.6,21.6 -21.6,-539.5134 746.6,-539.5134 746.6,21.6 -21.6,21.6"/>
<!-- ../ciencias/administracion.js -->
<g id="node1" class="node">
<title>../ciencias/administracion.js</title>
<path fill="none" stroke="#cfffac" d="M322.3333,-517.9134C322.3333,-517.9134 144.6667,-517.9134 144.6667,-517.9134 140.8333,-517.9134 137,-514.08 137,-510.2467 137,-510.2467 137,-502.58 137,-502.58 137,-498.7467 140.8333,-494.9134 144.6667,-494.9134 144.6667,-494.9134 322.3333,-494.9134 322.3333,-494.9134 326.1667,-494.9134 330,-498.7467 330,-502.58 330,-502.58 330,-510.2467 330,-510.2467 330,-514.08 326.1667,-517.9134 322.3333,-517.9134"/>
<text text-anchor="middle" x="233.5" y="-502.7134" font-family="Arial" font-size="14.00" fill="#cfffac">../ciencias/administracion.js</text>
</g>
<!-- ../ciencias/cognitivas.js -->
<g id="node2" class="node">
<title>../ciencias/cognitivas.js</title>
<path fill="none" stroke="#ff6c60" d="M307.8333,-437.9134C307.8333,-437.9134 159.1667,-437.9134 159.1667,-437.9134 155.3333,-437.9134 151.5,-434.08 151.5,-430.2467 151.5,-430.2467 151.5,-422.58 151.5,-422.58 151.5,-418.7467 155.3333,-414.9134 159.1667,-414.9134 159.1667,-414.9134 307.8333,-414.9134 307.8333,-414.9134 311.6667,-414.9134 315.5,-418.7467 315.5,-422.58 315.5,-422.58 315.5,-430.2467 315.5,-430.2467 315.5,-434.08 311.6667,-437.9134 307.8333,-437.9134"/>
<text text-anchor="middle" x="233.5" y="-422.7134" font-family="Arial" font-size="14.00" fill="#ff6c60">../ciencias/cognitivas.js</text>
</g>
<!-- psicologia.js -->
<g id="node3" class="node">
<title>psicologia.js</title>
<path fill="none" stroke="#ff6c60" d="M711.8333,-437.9134C711.8333,-437.9134 631.1667,-437.9134 631.1667,-437.9134 627.3333,-437.9134 623.5,-434.08 623.5,-430.2467 623.5,-430.2467 623.5,-422.58 623.5,-422.58 623.5,-418.7467 627.3333,-414.9134 631.1667,-414.9134 631.1667,-414.9134 711.8333,-414.9134 711.8333,-414.9134 715.6667,-414.9134 719.5,-418.7467 719.5,-422.58 719.5,-422.58 719.5,-430.2467 719.5,-430.2467 719.5,-434.08 715.6667,-437.9134 711.8333,-437.9134"/>
<text text-anchor="middle" x="671.5" y="-422.7134" font-family="Arial" font-size="14.00" fill="#ff6c60">psicologia.js</text>
</g>
<!-- ../ciencias/cognitivas.js&#45;&gt;psicologia.js -->
<g id="edge1" class="edge">
<title>../ciencias/cognitivas.js&#45;&gt;psicologia.js</title>
<path fill="none" stroke="#757575" d="M315.6274,-426.4134C402.2154,-426.4134 536.4509,-426.4134 612.9123,-426.4134"/>
<polygon fill="#757575" stroke="#757575" points="613.307,-429.9134 623.307,-426.4134 613.3069,-422.9134 613.307,-429.9134"/>
</g>
<!-- informatica.js -->
<g id="node9" class="node">
<title>informatica.js</title>
<path fill="none" stroke="#ff6c60" d="M93.3333,-298.9134C93.3333,-298.9134 7.6667,-298.9134 7.6667,-298.9134 3.8333,-298.9134 0,-295.08 0,-291.2467 0,-291.2467 0,-283.58 0,-283.58 0,-279.7467 3.8333,-275.9134 7.6667,-275.9134 7.6667,-275.9134 93.3333,-275.9134 93.3333,-275.9134 97.1667,-275.9134 101,-279.7467 101,-283.58 101,-283.58 101,-291.2467 101,-291.2467 101,-295.08 97.1667,-298.9134 93.3333,-298.9134"/>
<text text-anchor="middle" x="50.5" y="-283.7134" font-family="Arial" font-size="14.00" fill="#ff6c60">informatica.js</text>
</g>
<!-- psicologia.js&#45;&gt;informatica.js -->
<g id="edge24" class="edge">
<title>psicologia.js&#45;&gt;informatica.js</title>
<path fill="none" stroke="#757575" d="M623.0957,-434.8764C507.3287,-454.0919 218.0637,-495.7401 137,-447.4134 86.1186,-417.08 63.3591,-345.286 54.829,-309.0834"/>
<polygon fill="#757575" stroke="#757575" points="58.1937,-308.0882 52.6231,-299.076 51.3578,-309.595 58.1937,-308.0882"/>
</g>
<!-- ../ciencias/empircoNaturales.js -->
<g id="node4" class="node">
<title>../ciencias/empircoNaturales.js</title>
<path fill="none" stroke="#ff6c60" d="M572.8333,-392.9134C572.8333,-392.9134 375.1667,-392.9134 375.1667,-392.9134 371.3333,-392.9134 367.5,-389.08 367.5,-385.2467 367.5,-385.2467 367.5,-377.58 367.5,-377.58 367.5,-373.7467 371.3333,-369.9134 375.1667,-369.9134 375.1667,-369.9134 572.8333,-369.9134 572.8333,-369.9134 576.6667,-369.9134 580.5,-373.7467 580.5,-377.58 580.5,-377.58 580.5,-385.2467 580.5,-385.2467 580.5,-389.08 576.6667,-392.9134 572.8333,-392.9134"/>
<text text-anchor="middle" x="474" y="-377.7134" font-family="Arial" font-size="14.00" fill="#ff6c60">../ciencias/empircoNaturales.js</text>
</g>
<!-- ../ciencias/empircoNaturales.js&#45;&gt;psicologia.js -->
<g id="edge4" class="edge">
<title>../ciencias/empircoNaturales.js&#45;&gt;psicologia.js</title>
<path fill="none" stroke="#757575" d="M524.6047,-392.9435C551.6807,-399.1128 585.1502,-406.7387 613.2996,-413.1525"/>
<polygon fill="#757575" stroke="#757575" points="612.8804,-416.6466 623.4081,-415.4557 614.4355,-409.8215 612.8804,-416.6466"/>
</g>
<!-- electronica.js -->
<g id="node5" class="node">
<title>electronica.js</title>
<path fill="none" stroke="#cfffac" d="M714.3333,-392.9134C714.3333,-392.9134 628.6667,-392.9134 628.6667,-392.9134 624.8333,-392.9134 621,-389.08 621,-385.2467 621,-385.2467 621,-377.58 621,-377.58 621,-373.7467 624.8333,-369.9134 628.6667,-369.9134 628.6667,-369.9134 714.3333,-369.9134 714.3333,-369.9134 718.1667,-369.9134 722,-373.7467 722,-377.58 722,-377.58 722,-385.2467 722,-385.2467 722,-389.08 718.1667,-392.9134 714.3333,-392.9134"/>
<text text-anchor="middle" x="671.5" y="-377.7134" font-family="Arial" font-size="14.00" fill="#cfffac">electronica.js</text>
</g>
<!-- ../ciencias/empircoNaturales.js&#45;&gt;electronica.js -->
<g id="edge2" class="edge">
<title>../ciencias/empircoNaturales.js&#45;&gt;electronica.js</title>
<path fill="none" stroke="#757575" d="M580.554,-381.4134C590.8564,-381.4134 601.0448,-381.4134 610.6669,-381.4134"/>
<polygon fill="#757575" stroke="#757575" points="610.8643,-384.9135 620.8643,-381.4134 610.8642,-377.9135 610.8643,-384.9135"/>
</g>
<!-- neuroFisica.js -->
<g id="node6" class="node">
<title>neuroFisica.js</title>
<path fill="none" stroke="#ff6c60" d="M717.3333,-318.9134C717.3333,-318.9134 625.6667,-318.9134 625.6667,-318.9134 621.8333,-318.9134 618,-315.08 618,-311.2467 618,-311.2467 618,-303.58 618,-303.58 618,-299.7467 621.8333,-295.9134 625.6667,-295.9134 625.6667,-295.9134 717.3333,-295.9134 717.3333,-295.9134 721.1667,-295.9134 725,-299.7467 725,-303.58 725,-303.58 725,-311.2467 725,-311.2467 725,-315.08 721.1667,-318.9134 717.3333,-318.9134"/>
<text text-anchor="middle" x="671.5" y="-303.7134" font-family="Arial" font-size="14.00" fill="#ff6c60">neuroFisica.js</text>
</g>
<!-- ../ciencias/empircoNaturales.js&#45;&gt;neuroFisica.js -->
<g id="edge3" class="edge">
<title>../ciencias/empircoNaturales.js&#45;&gt;neuroFisica.js</title>
<path fill="none" stroke="#757575" d="M525.4992,-369.8632C543.615,-365.205 563.9493,-359.2924 582,-352.4134 602.8426,-344.4703 625.2644,-333.1918 642.452,-323.9134"/>
<polygon fill="#757575" stroke="#757575" points="644.3322,-326.8742 651.419,-318.9984 640.9676,-320.7358 644.3322,-326.8742"/>
</g>
<!-- neuroFisica.js&#45;&gt;informatica.js -->
<g id="edge22" class="edge">
<title>neuroFisica.js&#45;&gt;informatica.js</title>
<path fill="none" stroke="#757575" d="M617.9859,-304.6317C550.7665,-301.237 431.877,-295.5615 330,-292.4134 254.6501,-290.0849 167.8377,-288.7413 111.214,-288.0446"/>
<polygon fill="#757575" stroke="#757575" points="111.0433,-284.5424 101.002,-287.922 110.9592,-291.5419 111.0433,-284.5424"/>
</g>
<!-- ../ciencias/empiricas.js -->
<g id="node7" class="node">
<title>../ciencias/empiricas.js</title>
<path fill="none" stroke="#ff6c60" d="M306.3333,-357.9134C306.3333,-357.9134 160.6667,-357.9134 160.6667,-357.9134 156.8333,-357.9134 153,-354.08 153,-350.2467 153,-350.2467 153,-342.58 153,-342.58 153,-338.7467 156.8333,-334.9134 160.6667,-334.9134 160.6667,-334.9134 306.3333,-334.9134 306.3333,-334.9134 310.1667,-334.9134 314,-338.7467 314,-342.58 314,-342.58 314,-350.2467 314,-350.2467 314,-354.08 310.1667,-357.9134 306.3333,-357.9134"/>
<text text-anchor="middle" x="233.5" y="-342.7134" font-family="Arial" font-size="14.00" fill="#ff6c60">../ciencias/empiricas.js</text>
</g>
<!-- ../ciencias/empiricas.js&#45;&gt;../ciencias/empircoNaturales.js -->
<g id="edge5" class="edge">
<title>../ciencias/empiricas.js&#45;&gt;../ciencias/empircoNaturales.js</title>
<path fill="none" stroke="#757575" d="M312.5818,-357.9221C335.702,-361.2868 361.1313,-364.9876 384.8312,-368.4366"/>
<polygon fill="#757575" stroke="#757575" points="384.4708,-371.921 394.8707,-369.8977 385.479,-364.9939 384.4708,-371.921"/>
</g>
<!-- ../ciencias/empricoArtificiales.js -->
<g id="node8" class="node">
<title>../ciencias/empricoArtificiales.js</title>
<path fill="none" stroke="#ff6c60" d="M574.3333,-342.9134C574.3333,-342.9134 373.6667,-342.9134 373.6667,-342.9134 369.8333,-342.9134 366,-339.08 366,-335.2467 366,-335.2467 366,-327.58 366,-327.58 366,-323.7467 369.8333,-319.9134 373.6667,-319.9134 373.6667,-319.9134 574.3333,-319.9134 574.3333,-319.9134 578.1667,-319.9134 582,-323.7467 582,-327.58 582,-327.58 582,-335.2467 582,-335.2467 582,-339.08 578.1667,-342.9134 574.3333,-342.9134"/>
<text text-anchor="middle" x="474" y="-327.7134" font-family="Arial" font-size="14.00" fill="#ff6c60">../ciencias/empricoArtificiales.js</text>
</g>
<!-- ../ciencias/empiricas.js&#45;&gt;../ciencias/empricoArtificiales.js -->
<g id="edge6" class="edge">
<title>../ciencias/empiricas.js&#45;&gt;../ciencias/empricoArtificiales.js</title>
<path fill="none" stroke="#757575" d="M314.2521,-341.3768C327.5388,-340.5481 341.5494,-339.6743 355.5278,-338.8025"/>
<polygon fill="#757575" stroke="#757575" points="355.9272,-342.2845 365.6899,-338.1687 355.4914,-335.298 355.9272,-342.2845"/>
</g>
<!-- ../ciencias/empricoArtificiales.js&#45;&gt;informatica.js -->
<g id="edge7" class="edge">
<title>../ciencias/empricoArtificiales.js&#45;&gt;informatica.js</title>
<path fill="none" stroke="#757575" d="M365.6169,-320.1528C284.9258,-311.7693 177.6994,-300.6289 111.4361,-293.7444"/>
<polygon fill="#757575" stroke="#757575" points="111.4715,-290.2293 101.1633,-292.6771 110.7481,-297.1918 111.4715,-290.2293"/>
</g>
<!-- informatica.js&#45;&gt;../ciencias/administracion.js -->
<g id="edge15" class="edge">
<title>informatica.js&#45;&gt;../ciencias/administracion.js</title>
<path fill="none" stroke="#757575" d="M52.1929,-299.0208C57.7118,-332.5559 78.3391,-430.3672 137,-480.4134 141.5663,-484.3091 146.6607,-487.6267 152.057,-490.4513"/>
<polygon fill="#757575" stroke="#757575" points="150.8373,-493.7431 161.3837,-494.7546 153.7699,-487.387 150.8373,-493.7431"/>
</g>
<!-- informatica.js&#45;&gt;../ciencias/cognitivas.js -->
<g id="edge16" class="edge">
<title>informatica.js&#45;&gt;../ciencias/cognitivas.js</title>
<path fill="none" stroke="#757575" d="M56.076,-299.0357C67.7377,-322.0693 96.9765,-373.5969 137,-400.4134 143.4865,-404.7594 150.6744,-408.381 158.1166,-411.3984"/>
<polygon fill="#757575" stroke="#757575" points="157.0523,-414.7362 167.6458,-414.9065 159.4707,-408.1672 157.0523,-414.7362"/>
</g>
<!-- informatica.js&#45;&gt;../ciencias/empircoNaturales.js -->
<g id="edge17" class="edge">
<title>informatica.js&#45;&gt;../ciencias/empircoNaturales.js</title>
<path fill="none" stroke="#757575" d="M58.7064,-299.1089C72.4441,-317.5777 102.0563,-352.888 137,-367.4134 216.6252,-400.5118 316.1536,-400.1645 386.3408,-393.8974"/>
<polygon fill="#757575" stroke="#757575" points="386.854,-397.3644 396.4775,-392.933 386.1909,-390.3959 386.854,-397.3644"/>
</g>
<!-- informatica.js&#45;&gt;../ciencias/empiricas.js -->
<g id="edge18" class="edge">
<title>informatica.js&#45;&gt;../ciencias/empiricas.js</title>
<path fill="none" stroke="#757575" d="M78.6821,-298.9943C95.4682,-305.6834 117.2783,-314.0128 137,-320.4134 149.7567,-324.5535 163.6076,-328.5638 176.7289,-332.1453"/>
<polygon fill="#757575" stroke="#757575" points="176.0247,-335.5802 186.5905,-334.7956 177.8415,-328.8201 176.0247,-335.5802"/>
</g>
<!-- ../ciencias/formales.js -->
<g id="node10" class="node">
<title>../ciencias/formales.js</title>
<path fill="none" stroke="#c6c5fe" d="M303.3333,-239.9134C303.3333,-239.9134 163.6667,-239.9134 163.6667,-239.9134 159.8333,-239.9134 156,-236.08 156,-232.2467 156,-232.2467 156,-224.58 156,-224.58 156,-220.7467 159.8333,-216.9134 163.6667,-216.9134 163.6667,-216.9134 303.3333,-216.9134 303.3333,-216.9134 307.1667,-216.9134 311,-220.7467 311,-224.58 311,-224.58 311,-232.2467 311,-232.2467 311,-236.08 307.1667,-239.9134 303.3333,-239.9134"/>
<text text-anchor="middle" x="233.5" y="-224.7134" font-family="Arial" font-size="14.00" fill="#c6c5fe">../ciencias/formales.js</text>
</g>
<!-- informatica.js&#45;&gt;../ciencias/formales.js -->
<g id="edge19" class="edge">
<title>informatica.js&#45;&gt;../ciencias/formales.js</title>
<path fill="none" stroke="#757575" d="M78.6821,-275.8324C95.4682,-269.1433 117.2783,-260.8139 137,-254.4134 149.7567,-250.2732 163.6076,-246.2629 176.7289,-242.6814"/>
<polygon fill="#757575" stroke="#757575" points="177.8415,-246.0066 186.5905,-240.0311 176.0247,-239.2465 177.8415,-246.0066"/>
</g>
<!-- ../ciencias/lenguaje.js -->
<g id="node13" class="node">
<title>../ciencias/lenguaje.js</title>
<path fill="none" stroke="#cfffac" d="M303.3333,-198.9134C303.3333,-198.9134 163.6667,-198.9134 163.6667,-198.9134 159.8333,-198.9134 156,-195.08 156,-191.2467 156,-191.2467 156,-183.58 156,-183.58 156,-179.7467 159.8333,-175.9134 163.6667,-175.9134 163.6667,-175.9134 303.3333,-175.9134 303.3333,-175.9134 307.1667,-175.9134 311,-179.7467 311,-183.58 311,-183.58 311,-191.2467 311,-191.2467 311,-195.08 307.1667,-198.9134 303.3333,-198.9134"/>
<text text-anchor="middle" x="233.5" y="-183.7134" font-family="Arial" font-size="14.00" fill="#cfffac">../ciencias/lenguaje.js</text>
</g>
<!-- informatica.js&#45;&gt;../ciencias/lenguaje.js -->
<g id="edge20" class="edge">
<title>informatica.js&#45;&gt;../ciencias/lenguaje.js</title>
<path fill="none" stroke="#757575" d="M59.7625,-275.6881C74.2714,-258.1709 104.1201,-225.4139 137,-208.4134 141.3406,-206.169 145.9108,-204.1642 150.6056,-202.3732"/>
<polygon fill="#757575" stroke="#757575" points="152.0782,-205.5673 160.3837,-198.9894 149.789,-198.9522 152.0782,-205.5673"/>
</g>
<!-- ../ciencias/sociales.js -->
<g id="node14" class="node">
<title>../ciencias/sociales.js</title>
<path fill="none" stroke="#ff6c60" d="M301.8333,-121.9134C301.8333,-121.9134 165.1667,-121.9134 165.1667,-121.9134 161.3333,-121.9134 157.5,-118.08 157.5,-114.2467 157.5,-114.2467 157.5,-106.58 157.5,-106.58 157.5,-102.7467 161.3333,-98.9134 165.1667,-98.9134 165.1667,-98.9134 301.8333,-98.9134 301.8333,-98.9134 305.6667,-98.9134 309.5,-102.7467 309.5,-106.58 309.5,-106.58 309.5,-114.2467 309.5,-114.2467 309.5,-118.08 305.6667,-121.9134 301.8333,-121.9134"/>
<text text-anchor="middle" x="233.5" y="-106.7134" font-family="Arial" font-size="14.00" fill="#ff6c60">../ciencias/sociales.js</text>
</g>
<!-- informatica.js&#45;&gt;../ciencias/sociales.js -->
<g id="edge21" class="edge">
<title>informatica.js&#45;&gt;../ciencias/sociales.js</title>
<path fill="none" stroke="#757575" d="M56.7885,-275.6176C69.5015,-252.5972 100.2036,-201.0036 137,-167.4134 155.2776,-150.7284 179.2133,-136.5528 198.6733,-126.5116"/>
<polygon fill="#757575" stroke="#757575" points="200.4538,-129.5342 207.8225,-121.9215 197.3148,-123.2774 200.4538,-129.5342"/>
</g>
<!-- logica.js -->
<g id="node11" class="node">
<title>logica.js</title>
<path fill="none" stroke="#cfffac" d="M500.8333,-203.9134C500.8333,-203.9134 447.1667,-203.9134 447.1667,-203.9134 443.3333,-203.9134 439.5,-200.08 439.5,-196.2467 439.5,-196.2467 439.5,-188.58 439.5,-188.58 439.5,-184.7467 443.3333,-180.9134 447.1667,-180.9134 447.1667,-180.9134 500.8333,-180.9134 500.8333,-180.9134 504.6667,-180.9134 508.5,-184.7467 508.5,-188.58 508.5,-188.58 508.5,-196.2467 508.5,-196.2467 508.5,-200.08 504.6667,-203.9134 500.8333,-203.9134"/>
<text text-anchor="middle" x="474" y="-188.7134" font-family="Arial" font-size="14.00" fill="#cfffac">logica.js</text>
</g>
<!-- ../ciencias/formales.js&#45;&gt;logica.js -->
<g id="edge8" class="edge">
<title>../ciencias/formales.js&#45;&gt;logica.js</title>
<path fill="none" stroke="#757575" d="M310.5881,-216.8742C349.6405,-211.0285 395.6955,-204.1346 428.9423,-199.158"/>
<polygon fill="#757575" stroke="#757575" points="429.8899,-202.5552 439.2615,-197.6133 428.8536,-195.6323 429.8899,-202.5552"/>
</g>
<!-- matematicas.js -->
<g id="node12" class="node">
<title>matematicas.js</title>
<path fill="none" stroke="#cfffac" d="M522.8333,-244.9134C522.8333,-244.9134 425.1667,-244.9134 425.1667,-244.9134 421.3333,-244.9134 417.5,-241.08 417.5,-237.2467 417.5,-237.2467 417.5,-229.58 417.5,-229.58 417.5,-225.7467 421.3333,-221.9134 425.1667,-221.9134 425.1667,-221.9134 522.8333,-221.9134 522.8333,-221.9134 526.6667,-221.9134 530.5,-225.7467 530.5,-229.58 530.5,-229.58 530.5,-237.2467 530.5,-237.2467 530.5,-241.08 526.6667,-244.9134 522.8333,-244.9134"/>
<text text-anchor="middle" x="474" y="-229.7134" font-family="Arial" font-size="14.00" fill="#cfffac">matematicas.js</text>
</g>
<!-- ../ciencias/formales.js&#45;&gt;matematicas.js -->
<g id="edge9" class="edge">
<title>../ciencias/formales.js&#45;&gt;matematicas.js</title>
<path fill="none" stroke="#757575" d="M311.2513,-230.0298C342.1876,-230.673 377.4307,-231.4057 407.1913,-232.0244"/>
<polygon fill="#757575" stroke="#757575" points="407.4027,-235.5295 417.4734,-232.2382 407.5483,-228.531 407.4027,-235.5295"/>
</g>
<!-- derecho.js -->
<g id="node15" class="node">
<title>derecho.js</title>
<path fill="none" stroke="#cfffac" d="M508.3333,-121.9134C508.3333,-121.9134 439.6667,-121.9134 439.6667,-121.9134 435.8333,-121.9134 432,-118.08 432,-114.2467 432,-114.2467 432,-106.58 432,-106.58 432,-102.7467 435.8333,-98.9134 439.6667,-98.9134 439.6667,-98.9134 508.3333,-98.9134 508.3333,-98.9134 512.1667,-98.9134 516,-102.7467 516,-106.58 516,-106.58 516,-114.2467 516,-114.2467 516,-118.08 512.1667,-121.9134 508.3333,-121.9134"/>
<text text-anchor="middle" x="474" y="-106.7134" font-family="Arial" font-size="14.00" fill="#cfffac">derecho.js</text>
</g>
<!-- ../ciencias/sociales.js&#45;&gt;derecho.js -->
<g id="edge10" class="edge">
<title>../ciencias/sociales.js&#45;&gt;derecho.js</title>
<path fill="none" stroke="#757575" d="M309.5957,-110.4134C346.1035,-110.4134 388.9167,-110.4134 421.6999,-110.4134"/>
<polygon fill="#757575" stroke="#757575" points="421.9706,-113.9135 431.9706,-110.4134 421.9705,-106.9135 421.9706,-113.9135"/>
</g>
<!-- economia.js -->
<g id="node16" class="node">
<title>economia.js</title>
<path fill="none" stroke="#cfffac" d="M513.8333,-162.9134C513.8333,-162.9134 434.1667,-162.9134 434.1667,-162.9134 430.3333,-162.9134 426.5,-159.08 426.5,-155.2467 426.5,-155.2467 426.5,-147.58 426.5,-147.58 426.5,-143.7467 430.3333,-139.9134 434.1667,-139.9134 434.1667,-139.9134 513.8333,-139.9134 513.8333,-139.9134 517.6667,-139.9134 521.5,-143.7467 521.5,-147.58 521.5,-147.58 521.5,-155.2467 521.5,-155.2467 521.5,-159.08 517.6667,-162.9134 513.8333,-162.9134"/>
<text text-anchor="middle" x="474" y="-147.7134" font-family="Arial" font-size="14.00" fill="#cfffac">economia.js</text>
</g>
<!-- ../ciencias/sociales.js&#45;&gt;economia.js -->
<g id="edge11" class="edge">
<title>../ciencias/sociales.js&#45;&gt;economia.js</title>
<path fill="none" stroke="#757575" d="M301.1327,-121.9432C337.4241,-128.1302 381.6803,-135.6749 416.328,-141.5815"/>
<polygon fill="#757575" stroke="#757575" points="415.8447,-145.0496 426.2907,-143.28 417.0211,-138.1491 415.8447,-145.0496"/>
</g>
<!-- etica.js -->
<g id="node17" class="node">
<title>etica.js</title>
<path fill="none" stroke="#ff6c60" d="M497.3333,-80.9134C497.3333,-80.9134 450.6667,-80.9134 450.6667,-80.9134 446.8333,-80.9134 443,-77.08 443,-73.2467 443,-73.2467 443,-65.58 443,-65.58 443,-61.7467 446.8333,-57.9134 450.6667,-57.9134 450.6667,-57.9134 497.3333,-57.9134 497.3333,-57.9134 501.1667,-57.9134 505,-61.7467 505,-65.58 505,-65.58 505,-73.2467 505,-73.2467 505,-77.08 501.1667,-80.9134 497.3333,-80.9134"/>
<text text-anchor="middle" x="474" y="-65.7134" font-family="Arial" font-size="14.00" fill="#ff6c60">etica.js</text>
</g>
<!-- ../ciencias/sociales.js&#45;&gt;etica.js -->
<g id="edge12" class="edge">
<title>../ciencias/sociales.js&#45;&gt;etica.js</title>
<path fill="none" stroke="#757575" d="M301.1327,-98.8835C343.4938,-91.6618 396.7066,-82.5902 432.8237,-76.433"/>
<polygon fill="#757575" stroke="#757575" points="433.7231,-79.8303 442.9927,-74.6994 432.5467,-72.9298 433.7231,-79.8303"/>
</g>
<!-- politica.js -->
<g id="node18" class="node">
<title>politica.js</title>
<path fill="none" stroke="#ff6c60" d="M504.3333,-39.9134C504.3333,-39.9134 443.6667,-39.9134 443.6667,-39.9134 439.8333,-39.9134 436,-36.08 436,-32.2467 436,-32.2467 436,-24.58 436,-24.58 436,-20.7467 439.8333,-16.9134 443.6667,-16.9134 443.6667,-16.9134 504.3333,-16.9134 504.3333,-16.9134 508.1667,-16.9134 512,-20.7467 512,-24.58 512,-24.58 512,-32.2467 512,-32.2467 512,-36.08 508.1667,-39.9134 504.3333,-39.9134"/>
<text text-anchor="middle" x="474" y="-24.7134" font-family="Arial" font-size="14.00" fill="#ff6c60">politica.js</text>
</g>
<!-- ../ciencias/sociales.js&#45;&gt;politica.js -->
<g id="edge13" class="edge">
<title>../ciencias/sociales.js&#45;&gt;politica.js</title>
<path fill="none" stroke="#757575" d="M253.9448,-98.8338C279.4191,-84.8851 324.6459,-61.6778 366,-48.4134 385.2393,-42.2423 407.0538,-37.7534 426.016,-34.6114"/>
<polygon fill="#757575" stroke="#757575" points="426.6002,-38.0626 435.932,-33.0458 425.5085,-31.1482 426.6002,-38.0626"/>
</g>
<!-- etica.js&#45;&gt;informatica.js -->
<g id="edge14" class="edge">
<title>etica.js&#45;&gt;informatica.js</title>
<path fill="none" stroke="#757575" d="M442.6649,-61.492C378.6984,-47.266 231.1977,-24.6266 137,-90.4134 77.5433,-131.9373 58.5183,-223.7863 52.7959,-265.744"/>
<polygon fill="#757575" stroke="#757575" points="49.3154,-265.3714 51.5611,-275.7255 56.2624,-266.2308 49.3154,-265.3714"/>
</g>
<!-- politica.js&#45;&gt;informatica.js -->
<g id="edge23" class="edge">
<title>politica.js&#45;&gt;informatica.js</title>
<path fill="none" stroke="#757575" d="M435.9088,-17.7715C368.3501,-1.356 226.2706,21.7932 137,-44.4134 100.069,-71.8028 66.7279,-211.6112 54.9809,-265.859"/>
<polygon fill="#757575" stroke="#757575" points="51.5262,-265.2782 52.8664,-275.7879 58.3727,-266.7363 51.5262,-265.2782"/>
</g>
</g>
</svg>
